<svg xmlns="http://www.w3.org/2000/svg" xmlns:xlink="http://www.w3.org/1999/xlink" width="50" zoomAndPan="magnify" viewBox="0 0 37.5 37.499999" height="50" preserveAspectRatio="xMidYMid meet" version="1.0"><defs><clipPath id="b26d307418"><path d="M 3 1 L 34 1 L 34 36 L 3 36 Z M 3 1 " clip-rule="nonzero"/></clipPath><clipPath id="0c3bad5a13"><path d="M -4.175781 13.9375 L 26.082031 -3.222656 L 41.050781 23.175781 L 10.792969 40.332031 Z M -4.175781 13.9375 " clip-rule="nonzero"/></clipPath><clipPath id="49e50e57b3"><path d="M -4.175781 13.9375 L 26.082031 -3.222656 L 41.050781 23.175781 L 10.792969 40.332031 Z M -4.175781 13.9375 " clip-rule="nonzero"/></clipPath><clipPath id="8b8278311c"><path d="M 5 2 L 33 2 L 33 18 L 5 18 Z M 5 2 " clip-rule="nonzero"/></clipPath><clipPath id="d15b5bf373"><path d="M -4.175781 13.9375 L 26.082031 -3.222656 L 41.050781 23.175781 L 10.792969 40.332031 Z M -4.175781 13.9375 " clip-rule="nonzero"/></clipPath><clipPath id="515bde11d0"><path d="M -4.175781 13.9375 L 26.082031 -3.222656 L 41.050781 23.175781 L 10.792969 40.332031 Z M -4.175781 13.9375 " clip-rule="nonzero"/></clipPath><clipPath id="e52e3e8685"><path d="M 4 10 L 18 10 L 18 35 L 4 35 Z M 4 10 " clip-rule="nonzero"/></clipPath><clipPath id="ca0bb79415"><path d="M -4.175781 13.9375 L 26.082031 -3.222656 L 41.050781 23.175781 L 10.792969 40.332031 Z M -4.175781 13.9375 " clip-rule="nonzero"/></clipPath><clipPath id="e62f52389d"><path d="M -4.175781 13.9375 L 26.082031 -3.222656 L 41.050781 23.175781 L 10.792969 40.332031 Z M -4.175781 13.9375 " clip-rule="nonzero"/></clipPath><clipPath id="1d8b8af389"><path d="M 18 11 L 33 11 L 33 35 L 18 35 Z M 18 11 " clip-rule="nonzero"/></clipPath><clipPath id="51e2f32ec4"><path d="M -4.175781 13.9375 L 26.082031 -3.222656 L 41.050781 23.175781 L 10.792969 40.332031 Z M -4.175781 13.9375 " clip-rule="nonzero"/></clipPath><clipPath id="3cde203524"><path d="M -4.175781 13.9375 L 26.082031 -3.222656 L 41.050781 23.175781 L 10.792969 40.332031 Z M -4.175781 13.9375 " clip-rule="nonzero"/></clipPath><clipPath id="0916d14c48"><path d="M 9 11 L 14 11 L 14 18 L 9 18 Z M 9 11 " clip-rule="nonzero"/></clipPath><clipPath id="8e7980b730"><path d="M -4.175781 13.9375 L 26.082031 -3.222656 L 41.050781 23.175781 L 10.792969 40.332031 Z M -4.175781 13.9375 " clip-rule="nonzero"/></clipPath><clipPath id="550aac6010"><path d="M -4.175781 13.9375 L 26.082031 -3.222656 L 41.050781 23.175781 L 10.792969 40.332031 Z M -4.175781 13.9375 " clip-rule="nonzero"/></clipPath><clipPath id="fdb4ce07b5"><path d="M 9 16 L 14 16 L 14 21 L 9 21 Z M 9 16 " clip-rule="nonzero"/></clipPath><clipPath id="a7373190ff"><path d="M -4.175781 13.9375 L 26.082031 -3.222656 L 41.050781 23.175781 L 10.792969 40.332031 Z M -4.175781 13.9375 " clip-rule="nonzero"/></clipPath><clipPath id="59e3fe0b71"><path d="M -4.175781 13.9375 L 26.082031 -3.222656 L 41.050781 23.175781 L 10.792969 40.332031 Z M -4.175781 13.9375 " clip-rule="nonzero"/></clipPath><clipPath id="6ee69ea19c"><path d="M 9 25 L 13 25 L 13 29 L 9 29 Z M 9 25 " clip-rule="nonzero"/></clipPath><clipPath id="c07a76678b"><path d="M -4.175781 13.9375 L 26.082031 -3.222656 L 41.050781 23.175781 L 10.792969 40.332031 Z M -4.175781 13.9375 " clip-rule="nonzero"/></clipPath><clipPath id="5c7c90e854"><path d="M -4.175781 13.9375 L 26.082031 -3.222656 L 41.050781 23.175781 L 10.792969 40.332031 Z M -4.175781 13.9375 " clip-rule="nonzero"/></clipPath><clipPath id="5ab010942d"><path d="M 23 16 L 28 16 L 28 21 L 23 21 Z M 23 16 " clip-rule="nonzero"/></clipPath><clipPath id="5f9470913d"><path d="M -4.175781 13.9375 L 26.082031 -3.222656 L 41.050781 23.175781 L 10.792969 40.332031 Z M -4.175781 13.9375 " clip-rule="nonzero"/></clipPath><clipPath id="2fc83e9249"><path d="M -4.175781 13.9375 L 26.082031 -3.222656 L 41.050781 23.175781 L 10.792969 40.332031 Z M -4.175781 13.9375 " clip-rule="nonzero"/></clipPath><clipPath id="97d3090a21"><path d="M 14 11 L 18 11 L 18 15 L 14 15 Z M 14 11 " clip-rule="nonzero"/></clipPath><clipPath id="c0351c9e26"><path d="M -4.175781 13.9375 L 26.082031 -3.222656 L 41.050781 23.175781 L 10.792969 40.332031 Z M -4.175781 13.9375 " clip-rule="nonzero"/></clipPath><clipPath id="0c9b5a1a3e"><path d="M -4.175781 13.9375 L 26.082031 -3.222656 L 41.050781 23.175781 L 10.792969 40.332031 Z M -4.175781 13.9375 " clip-rule="nonzero"/></clipPath><clipPath id="43ff4d824f"><path d="M 24 25 L 28 25 L 28 29 L 24 29 Z M 24 25 " clip-rule="nonzero"/></clipPath><clipPath id="fc99283a9c"><path d="M -4.175781 13.9375 L 26.082031 -3.222656 L 41.050781 23.175781 L 10.792969 40.332031 Z M -4.175781 13.9375 " clip-rule="nonzero"/></clipPath><clipPath id="8030e8d188"><path d="M -4.175781 13.9375 L 26.082031 -3.222656 L 41.050781 23.175781 L 10.792969 40.332031 Z M -4.175781 13.9375 " clip-rule="nonzero"/></clipPath><clipPath id="011ea981ff"><path d="M 24 13 L 28 13 L 28 18 L 24 18 Z M 24 13 " clip-rule="nonzero"/></clipPath><clipPath id="b450b70a97"><path d="M -4.175781 13.9375 L 26.082031 -3.222656 L 41.050781 23.175781 L 10.792969 40.332031 Z M -4.175781 13.9375 " clip-rule="nonzero"/></clipPath><clipPath id="0cdc2541e0"><path d="M -4.175781 13.9375 L 26.082031 -3.222656 L 41.050781 23.175781 L 10.792969 40.332031 Z M -4.175781 13.9375 " clip-rule="nonzero"/></clipPath><clipPath id="70f78391a6"><path d="M 19 5 L 23 5 L 23 10 L 19 10 Z M 19 5 " clip-rule="nonzero"/></clipPath><clipPath id="452145f0e4"><path d="M -4.175781 13.9375 L 26.082031 -3.222656 L 41.050781 23.175781 L 10.792969 40.332031 Z M -4.175781 13.9375 " clip-rule="nonzero"/></clipPath><clipPath id="153f731646"><path d="M -4.175781 13.9375 L 26.082031 -3.222656 L 41.050781 23.175781 L 10.792969 40.332031 Z M -4.175781 13.9375 " clip-rule="nonzero"/></clipPath></defs><g clip-path="url(#b26d307418)"><g clip-path="url(#0c3bad5a13)"><g clip-path="url(#49e50e57b3)"><path fill="#004aad" d="M 12.992188 27.855469 C 12.867188 27.921875 12.792969 27.933594 12.738281 27.964844 C 11.546875 28.640625 10.324219 29.335938 9.144531 30.0625 C 9.007812 30.15625 8.855469 30.199219 8.6875 30.199219 C 8.519531 30.199219 8.367188 30.148438 8.230469 30.054688 C 6.730469 29.152344 5.230469 28.269531 3.730469 27.402344 C 3.402344 27.238281 3.25 26.976562 3.28125 26.609375 C 3.332031 21.140625 3.378906 15.667969 3.421875 10.191406 C 3.410156 9.804688 3.574219 9.523438 3.914062 9.347656 C 5.800781 8.277344 7.683594 7.210938 9.570312 6.140625 L 18.265625 1.210938 C 18.503906 1.054688 18.742188 1.054688 18.980469 1.207031 C 20.554688 2.132812 22.128906 3.054688 23.707031 3.984375 C 23.90625 4.132812 24.015625 4.328125 24.039062 4.574219 C 24.054688 5.96875 24.039062 7.351562 24.007812 8.753906 C 24.003906 8.863281 24.019531 8.972656 24.035156 9.15625 L 24.382812 8.957031 L 27.9375 6.894531 C 28.1875 6.726562 28.4375 6.726562 28.6875 6.894531 C 30.253906 7.800781 31.804688 8.710938 33.347656 9.628906 C 33.625 9.773438 33.753906 10.003906 33.738281 10.316406 L 33.574219 26.480469 C 33.570312 26.574219 33.574219 26.667969 33.585938 26.757812 C 33.617188 26.957031 33.582031 27.140625 33.480469 27.3125 C 33.382812 27.480469 33.238281 27.601562 33.050781 27.671875 C 31.550781 28.492188 30.0625 29.339844 28.582031 30.207031 C 28.445312 30.300781 28.292969 30.351562 28.125 30.347656 C 27.957031 30.347656 27.804688 30.296875 27.671875 30.199219 C 26.503906 29.492188 25.335938 28.804688 24.167969 28.113281 C 24.082031 28.0625 23.988281 28.015625 23.824219 27.9375 C 23.828125 28.429688 23.832031 28.871094 23.824219 29.320312 C 23.820312 30.371094 23.808594 31.425781 23.804688 32.453125 C 23.824219 32.769531 23.691406 32.988281 23.40625 33.121094 C 21.855469 34 20.304688 34.878906 18.753906 35.757812 C 18.484375 35.941406 18.214844 35.941406 17.945312 35.757812 C 16.398438 34.835938 14.820312 33.949219 13.300781 33.003906 C 13.09375 32.851562 12.976562 32.648438 12.953125 32.390625 C 12.941406 30.996094 12.953125 29.613281 12.988281 28.210938 C 13.015625 28.113281 13.003906 28.015625 12.992188 27.855469 Z M 12.992188 27.855469 " fill-opacity="1" fill-rule="nonzero"/></g></g></g><g clip-path="url(#8b8278311c)"><g clip-path="url(#d15b5bf373)"><g clip-path="url(#515bde11d0)"><path fill="#d6feff" d="M 5.128906 9.96875 C 5.253906 10.058594 5.34375 10.144531 5.445312 10.203125 C 6.476562 10.808594 7.511719 11.402344 8.539062 12.019531 C 8.738281 12.164062 8.941406 12.164062 9.140625 12.019531 C 10.539062 11.226562 11.921875 10.441406 13.324219 9.621094 C 13.589844 9.4375 13.847656 9.441406 14.105469 9.632812 C 14.210938 9.703125 14.320312 9.769531 14.433594 9.832031 C 15.871094 10.679688 17.316406 11.523438 18.753906 12.375 C 18.984375 12.46875 19.101562 12.636719 19.105469 12.886719 C 19.109375 13.132812 19 13.308594 18.777344 13.410156 C 17.585938 14.085938 16.351562 14.753906 15.136719 15.425781 C 15.027344 15.492188 14.914062 15.554688 14.78125 15.660156 C 14.890625 15.742188 14.9375 15.78125 14.996094 15.816406 C 16.066406 16.445312 17.148438 17.066406 18.210938 17.707031 C 18.410156 17.847656 18.609375 17.847656 18.804688 17.703125 L 31.757812 10.359375 C 31.832031 10.316406 31.910156 10.273438 32.007812 10.21875 C 31.972656 10.179688 31.933594 10.144531 31.894531 10.109375 C 30.761719 9.449219 29.625 8.773438 28.488281 8.132812 C 28.351562 8.066406 28.21875 8.066406 28.082031 8.136719 C 26.703125 8.917969 25.324219 9.699219 23.957031 10.5 C 23.796875 10.609375 23.621094 10.664062 23.429688 10.664062 C 23.234375 10.664062 23.058594 10.605469 22.902344 10.492188 C 21.429688 9.613281 19.945312 8.75 18.460938 7.882812 C 18.199219 7.777344 18.054688 7.582031 18.03125 7.296875 C 18.027344 6.996094 18.238281 6.855469 18.46875 6.722656 L 22.058594 4.714844 L 22.347656 4.550781 C 22.296875 4.484375 22.238281 4.425781 22.175781 4.375 C 21.03125 3.722656 19.925781 3.066406 18.804688 2.425781 C 18.667969 2.375 18.53125 2.382812 18.402344 2.453125 C 14.066406 4.910156 9.726562 7.359375 5.375 9.804688 C 5.304688 9.847656 5.242188 9.890625 5.128906 9.96875 Z M 5.128906 9.96875 " fill-opacity="1" fill-rule="nonzero"/></g></g></g><g clip-path="url(#e52e3e8685)"><g clip-path="url(#ca0bb79415)"><g clip-path="url(#e62f52389d)"><path fill="#d6feff" d="M 8.128906 28.703125 C 8.140625 28.550781 8.15625 28.464844 8.152344 28.375 C 8.160156 26.972656 8.167969 25.566406 8.167969 24.167969 C 8.171875 23.570312 8.597656 23.308594 9.101562 23.605469 C 10.660156 24.503906 12.179688 25.425781 13.722656 26.324219 C 14.03125 26.472656 14.167969 26.71875 14.140625 27.058594 C 14.101562 28.65625 14.105469 30.285156 14.082031 31.902344 C 14.070312 32.105469 14.152344 32.25 14.332031 32.34375 C 15.160156 32.820312 15.984375 33.296875 16.804688 33.777344 C 17.128906 33.964844 17.453125 34.164062 17.816406 34.390625 C 17.824219 34.222656 17.832031 34.121094 17.832031 34.023438 C 17.871094 29.039062 17.90625 24.058594 17.9375 19.078125 C 17.925781 18.925781 17.855469 18.800781 17.726562 18.710938 C 16.871094 18.191406 16.007812 17.695312 15.148438 17.1875 C 14.851562 17.015625 14.558594 16.835938 14.242188 16.648438 C 14.222656 16.742188 14.210938 16.839844 14.203125 16.9375 C 14.195312 18.34375 14.191406 19.746094 14.191406 21.144531 C 14.226562 21.417969 14.132812 21.625 13.898438 21.773438 C 13.660156 21.902344 13.433594 21.882812 13.222656 21.707031 C 11.71875 20.824219 10.226562 19.929688 8.714844 19.0625 C 8.550781 18.984375 8.421875 18.867188 8.332031 18.707031 C 8.242188 18.546875 8.203125 18.375 8.222656 18.195312 C 8.253906 16.601562 8.261719 15.023438 8.289062 13.429688 C 8.3125 13.226562 8.230469 13.078125 8.039062 12.992188 C 7.425781 12.648438 6.816406 12.285156 6.207031 11.933594 L 4.542969 10.949219 C 4.546875 11.300781 4.558594 11.574219 4.554688 11.847656 C 4.5 16.640625 4.449219 21.445312 4.40625 26.253906 C 4.375 26.445312 4.449219 26.578125 4.632812 26.648438 C 5.53125 27.160156 6.417969 27.6875 7.308594 28.210938 C 7.558594 28.351562 7.820312 28.515625 8.128906 28.703125 Z M 8.128906 28.703125 " fill-opacity="1" fill-rule="nonzero"/></g></g></g><g clip-path="url(#1d8b8af389)"><g clip-path="url(#51e2f32ec4)"><g clip-path="url(#3cde203524)"><path fill="#d6feff" d="M 32.582031 11.179688 C 32.460938 11.25 32.386719 11.292969 32.304688 11.335938 C 31.261719 11.929688 30.21875 12.519531 29.175781 13.109375 C 29.054688 13.164062 28.960938 13.25 28.894531 13.367188 C 28.828125 13.484375 28.804688 13.609375 28.824219 13.742188 C 28.824219 15.316406 28.808594 16.898438 28.800781 18.480469 C 28.824219 18.792969 28.695312 19.023438 28.414062 19.164062 C 26.851562 20.050781 25.292969 20.933594 23.734375 21.820312 C 23.210938 22.117188 22.769531 21.839844 22.789062 21.253906 L 22.832031 17.027344 C 22.832031 16.9375 22.824219 16.84375 22.816406 16.753906 C 22.769531 16.761719 22.730469 16.773438 22.6875 16.789062 C 21.539062 17.441406 20.394531 18.089844 19.25 18.738281 C 19.121094 18.847656 19.054688 18.988281 19.054688 19.160156 C 18.996094 24.078125 18.957031 29.007812 18.925781 33.953125 C 18.933594 34.089844 18.949219 34.226562 18.972656 34.363281 C 19.058594 34.3125 19.113281 34.316406 19.152344 34.292969 C 20.269531 33.660156 21.378906 33.03125 22.480469 32.367188 C 22.613281 32.257812 22.683594 32.117188 22.6875 31.945312 C 22.714844 30.355469 22.726562 28.773438 22.734375 27.195312 C 22.699219 26.863281 22.828125 26.613281 23.121094 26.449219 C 24.710938 25.550781 26.261719 24.667969 27.835938 23.777344 C 28.335938 23.492188 28.757812 23.738281 28.75 24.308594 C 28.742188 25.714844 28.71875 27.121094 28.710938 28.53125 C 28.707031 28.628906 28.71875 28.726562 28.726562 28.875 C 28.851562 28.800781 28.941406 28.785156 29.019531 28.742188 C 30.101562 28.125 31.1875 27.511719 32.253906 26.867188 C 32.390625 26.765625 32.464844 26.628906 32.476562 26.460938 C 32.496094 25.488281 32.488281 24.511719 32.496094 23.535156 C 32.535156 19.585938 32.570312 15.636719 32.605469 11.691406 Z M 32.582031 11.179688 " fill-opacity="1" fill-rule="nonzero"/></g></g></g><g clip-path="url(#0916d14c48)"><g clip-path="url(#8e7980b730)"><g clip-path="url(#550aac6010)"><path fill="#d6feff" d="M 9.375 17.460938 C 9.445312 17.441406 9.511719 17.414062 9.574219 17.386719 C 10.691406 16.75 11.804688 16.121094 12.902344 15.464844 C 13.035156 15.355469 13.101562 15.214844 13.101562 15.042969 C 13.128906 13.804688 13.140625 12.5625 13.160156 11.335938 C 13.160156 11.253906 13.136719 11.164062 13.121094 11.042969 C 11.894531 11.738281 10.714844 12.40625 9.546875 13.070312 C 9.453125 13.121094 9.402344 13.320312 9.398438 13.453125 C 9.375 14.683594 9.363281 15.910156 9.359375 17.152344 C 9.355469 17.253906 9.363281 17.359375 9.375 17.460938 Z M 9.375 17.460938 " fill-opacity="1" fill-rule="nonzero"/></g></g></g><g clip-path="url(#fdb4ce07b5)"><g clip-path="url(#a7373190ff)"><g clip-path="url(#59e3fe0b71)"><path fill="#d6feff" d="M 13.097656 16.625 L 9.886719 18.445312 L 13.054688 20.324219 Z M 13.097656 16.625 " fill-opacity="1" fill-rule="nonzero"/></g></g></g><g clip-path="url(#6ee69ea19c)"><g clip-path="url(#c07a76678b)"><g clip-path="url(#5c7c90e854)"><path fill="#d6feff" d="M 9.253906 28.699219 L 12.457031 26.886719 L 9.292969 25.003906 C 9.265625 26.265625 9.265625 27.457031 9.253906 28.699219 Z M 9.253906 28.699219 " fill-opacity="1" fill-rule="nonzero"/></g></g></g><g clip-path="url(#5ab010942d)"><g clip-path="url(#5f9470913d)"><g clip-path="url(#2fc83e9249)"><path fill="#d6feff" d="M 27.113281 18.585938 C 26.039062 17.949219 25.015625 17.347656 23.945312 16.707031 L 23.933594 20.386719 Z M 27.113281 18.585938 " fill-opacity="1" fill-rule="nonzero"/></g></g></g><g clip-path="url(#97d3090a21)"><g clip-path="url(#c0351c9e26)"><g clip-path="url(#0c9b5a1a3e)"><path fill="#d6feff" d="M 14.234375 11.03125 L 14.222656 14.710938 L 17.429688 12.894531 C 16.359375 12.265625 15.339844 11.664062 14.234375 11.03125 Z M 14.234375 11.03125 " fill-opacity="1" fill-rule="nonzero"/></g></g></g><g clip-path="url(#43ff4d824f)"><g clip-path="url(#fc99283a9c)"><g clip-path="url(#8030e8d188)"><path fill="#d6feff" d="M 27.582031 28.847656 C 27.59375 27.605469 27.605469 26.414062 27.59375 25.164062 L 24.414062 26.964844 C 25.488281 27.609375 26.507812 28.210938 27.582031 28.847656 Z M 27.582031 28.847656 " fill-opacity="1" fill-rule="nonzero"/></g></g></g><g clip-path="url(#011ea981ff)"><g clip-path="url(#b450b70a97)"><g clip-path="url(#0cdc2541e0)"><path fill="#d6feff" d="M 27.703125 13.960938 L 24.527344 15.761719 L 27.671875 17.613281 Z M 27.703125 13.960938 " fill-opacity="1" fill-rule="nonzero"/></g></g></g><g clip-path="url(#70f78391a6)"><g clip-path="url(#452145f0e4)"><g clip-path="url(#153f731646)"><path fill="#d6feff" d="M 22.90625 5.519531 L 19.730469 7.320312 C 20.789062 7.945312 21.796875 8.535156 22.871094 9.160156 Z M 22.90625 5.519531 " fill-opacity="1" fill-rule="nonzero"/></g></g></g></svg>